<?xml version="1.0" encoding="utf-8"?>
<!-- Generator: Adobe Illustrator 18.1.1, SVG Export Plug-In . SVG Version: 6.00 Build 0)  -->
<svg version="1.1" id="Layer_1" xmlns="http://www.w3.org/2000/svg" xmlns:xlink="http://www.w3.org/1999/xlink" x="0px" y="0px"
	 viewBox="0 0 1440 1440" enable-background="new 0 0 1440 1440" xml:space="preserve">
<g>
	<defs>
		<rect id="SVGID_1_" x="-21.5" y="-21" width="1483" height="1483"/>
	</defs>
	<clipPath id="SVGID_2_">
		<use xlink:href="#SVGID_1_"  overflow="visible"/>
	</clipPath>
	<rect x="-21.5" y="-21" clip-path="url(#SVGID_2_)" stroke="#FFFFFF" width="1483" height="1483"/>
	<g clip-path="url(#SVGID_2_)">
		<path fill="#FFFFFF" d="M113.2,1286.5V-28.7h179.6v1153.6H887v161.6H113.2z"/>
	</g>
	<g clip-path="url(#SVGID_2_)">
		<path fill="#FFFFFF" d="M817.3,470.9L785.5,552c-30.4-22.1-78.2-33.2-143.3-33.2c-61.1,0-110,26.3-146.9,78.8
			C458.4,650.1,440,717.8,440,800.7c0,79.1,18.9,143.3,56.7,192.4c37.8,49.2,86.6,73.8,146.4,73.8c65.2,0,115.3-23.1,150.4-69.3
			l52.2,72.6c-55,54.7-125.9,82.1-212.6,82.1c-90.8,0-162.3-32.7-214.5-98.2c-52.2-65.5-78.3-151.9-78.3-259.1
			c0-103.8,27.8-190,83.5-258.6c55.7-68.7,127.7-103,215.9-103C715.4,433.4,774.6,445.9,817.3,470.9z"/>
	</g>
</g>
</svg>
